<svg width="21" height="16" viewBox="0 0 21 16" fill="none" xmlns="http://www.w3.org/2000/svg">
<path fill-rule="evenodd" clip-rule="evenodd" d="M15.6062 15.6745C16.7857 16.1396 17.228 15.1652 17.228 15.1652L20.3488 1.03673C20.3242 0.0844644 18.8989 0.660236 18.8989 0.660236L1.4275 6.83863C1.4275 6.83863 0.592021 7.10441 0.665739 7.56948C0.739458 8.03454 1.40294 8.25591 1.40294 8.25591L5.8015 9.58471C5.8015 9.58471 7.12839 13.5043 7.39877 14.2572C7.64442 14.9881 7.86569 15.0101 7.86569 15.0101C8.11134 15.0987 8.3325 14.9438 8.3325 14.9438L11.183 12.6186L15.6062 15.6745ZM16.3663 3.53912C16.3663 3.53912 16.9806 3.20695 16.9561 3.53912C16.9561 3.53912 17.0543 3.58341 16.7349 3.89349C16.44 4.15927 9.48586 9.7841 8.55202 10.5369C8.4783 10.5812 8.42919 10.6477 8.42919 10.7363L8.15892 12.8179C8.1097 13.0393 7.79033 13.0615 7.71661 12.8622L6.56161 9.45193C6.5125 9.31904 6.56161 9.16395 6.70905 9.07546L16.3663 3.53912Z" fill="#141414"/>
</svg>
