<svg width="21" height="21" viewBox="0 0 21 21" fill="none" xmlns="http://www.w3.org/2000/svg">
<path d="M17.2858 3.74286L17.2876 3.7447C19.0543 5.49713 20.042 7.868 20.042 10.3952C20.042 15.6026 15.7788 19.8834 10.5277 19.8834C8.96615 19.8834 7.4072 19.522 6.00584 18.7498L5.94293 18.7151L5.87332 18.7329L1.03711 19.9691L2.33144 15.2783L2.35084 15.208L2.31617 15.1437C1.53346 13.6945 1.0664 12.0948 1.06641 10.4477L1.06639 10.4458C1.01444 5.24076 5.2756 0.959473 10.5807 0.959473C13.0771 0.959473 15.5199 1.93975 17.2858 3.74286ZM2.93478 17.9162L2.85535 18.2155L3.15528 18.1386L6.16295 17.367L6.41368 17.4913C7.66143 18.243 9.12239 18.6172 10.5807 18.6172C12.0964 18.6172 13.6136 18.1881 14.8626 17.3808C18.7638 15.0144 19.8993 10.015 17.5169 6.14823C15.1315 2.27645 10.0919 1.15111 6.19503 3.51322C2.29235 5.87883 1.15512 10.9324 3.53911 14.7481L3.54232 14.7532L3.70838 15.0002L2.93478 17.9162ZM15.1653 12.7663C15.1869 12.7771 15.2053 12.7878 15.2206 12.7975V12.7989V12.8004V12.8018V12.8033V12.8048V12.8063V12.8078V12.8092V12.8108V12.8122V12.8137V12.8152V12.8167V12.8182V12.8197V12.8212V12.8227V12.8242V12.8256V12.8272V12.8287V12.8302V12.8318V12.8332V12.8348V12.8362V12.8378V12.8393V12.8408V12.8424V12.8438V12.8454V12.8469V12.8484V12.85V12.8515V12.853V12.8545V12.8561V12.8576V12.8591V12.8606V12.8622V12.8638V12.8652V12.8668V12.8683V12.8699V12.8714V12.8729V12.8745V12.876V12.8776V12.8791V12.8806V12.8821V12.8837V12.8852V12.8868V12.8884V12.8898V12.8914V12.8929V12.8945V12.896V12.8976V12.8991V12.9006V12.9022V12.9037V12.9053V12.9068V12.9083V12.9098V12.9114V12.913V12.9145V12.916V12.9175V12.9191V12.9206V12.9222V12.9236V12.9252V12.9268V12.9283V12.9298V12.9313V12.9329V12.9343V12.9359V12.9375V12.9389V12.9405V12.942V12.9435V12.945V12.9465V12.9481V12.9496V12.9511V12.9526V12.9541V12.9556V12.9571V12.9586V12.9601V12.9617V12.9631V12.9646V12.9661V12.9676V12.9691V12.9706V12.9721V12.9735V12.9751V12.9765V12.978V12.9795V12.9809V12.9825V12.9839V12.9854V12.9868V12.9883V12.9898V12.9912V12.9927V12.9941V12.9956V12.9971V12.9985V12.9999V13.0013V13.0028V13.0042V13.0057V13.0071V13.0085V13.01V13.0113V13.0128V13.0142V13.0156V13.017V13.0184V13.0198V13.0213V13.0226V13.024V13.0254V13.0268V13.0282V13.0295V13.0309V13.0323V13.0337V13.0351V13.0364V13.0378V13.0391V13.0404V13.0418V13.0431V13.0445V13.0459V13.0471V13.0485V13.0497V13.0511V13.0525V13.0537V13.055V13.0564C15.1677 13.3183 15.1189 13.5494 15.0281 13.7294C14.9913 13.8023 14.9108 13.8852 14.7974 13.9976C14.7549 14.0399 14.7117 14.0721 14.6579 14.1122L14.655 14.1143C14.6035 14.1527 14.5418 14.1986 14.4795 14.2603L14.3736 14.3655C14.3448 14.3939 14.3167 14.4095 14.2626 14.4333C14.256 14.4362 14.2491 14.4392 14.2418 14.4424C14.1901 14.4648 14.1201 14.4951 14.0405 14.5465C13.8427 14.643 13.5588 14.7332 13.3358 14.7332H13.3339H13.332H13.3302H13.3273H13.3255H13.3236H13.3217H13.3198H13.3169H13.315H13.3121H13.3093H13.3073H13.3044H13.3025H13.3005H13.2976H13.2957H13.2937H13.2907H13.2888H13.2868H13.2849H13.2838H13.2818H13.2799H13.2788H13.2769H13.2748H13.2719H13.2709H13.2689H13.2678H13.2648H13.2629H13.2618H13.2598H13.2578H13.2568H13.2547H13.2527H13.2506H13.2486H13.2466H13.2445H13.2425H13.2404H13.2384H13.2373H13.2353H13.2332H13.2322H13.2301H13.2281H13.227H13.225H13.2239H13.2219H13.2208H13.2197H13.2177H13.2166H13.2146H13.2135H13.2124H13.2104H13.2093H13.2083H13.2062H13.2051H13.2041H13.203H13.201H13.1999H13.1988H13.1978H13.1967H13.1946H13.1936H13.1925H13.1914H13.1904H13.1893H13.1882H13.1862H13.1851H13.184H13.183H13.1819H13.1808H13.1798H13.1787H13.1776H13.1766H13.1755H13.1734H13.1724H13.1713H13.1702H13.1692H13.1681H13.167H13.166H13.1649H13.1638H13.1628H13.1617H13.1606H13.1595H13.1585H13.1574H13.1563H13.1553H13.1542H13.1531H13.1521H13.151H13.1499H13.1488H13.1477H13.1466H13.1455H13.1445H13.1434H13.1423H13.1413H13.1402H13.1391H13.1381H13.137H13.1359H13.1348H13.1337H13.1326H13.1315H13.1305H13.1294H13.1283H13.1273H13.1262H13.1251H13.124H13.1229H13.1218H13.1208H13.1197H13.1186H13.1175H13.1165H13.1153H13.1142H13.1132H13.1121H13.111H13.11H13.1089H13.1077H13.1067H13.1056H13.1045H13.1034H13.1024H13.1013H13.1001H13.0991H13.098H13.0969H13.0959H13.0948H13.0936H13.0926H13.0915H13.0904H13.0893H13.0883H13.0871H13.086H13.085H13.0839H13.0828H13.0818H13.0806H13.0795H13.0785H13.0774H13.0763H13.0753H13.0741H13.073H13.0719H13.0709H13.0698H13.0686H13.0676H13.0665H13.0654H13.0644H13.0633H13.0621H13.0611H13.06H13.0589H13.0578H13.0568H13.0556H13.0545H13.0535H13.0524H13.0513H13.0503H13.0491H13.048H13.047H13.0459H13.0448H13.0438H13.0426H13.0415H13.0404H13.0394H13.0383H13.0372H13.0361H13.035H13.0339H13.0329H13.0318H13.0307H13.0297H13.0285H13.0274H13.0263H13.0253H13.0242H13.0231H13.0221H13.021H13.0198H13.0188H13.0177H13.0166H13.0156H13.0145H13.0134H13.0123H13.0113H13.0101H13.009H13.008H13.0069H13.0058H13.0048H13.0037H13.0026H13.0016H13.0005H12.9994H12.9983H12.9972H12.9961H12.995H12.994H12.9929H12.9918H12.9908H12.9897H12.9886H12.9876H12.9865H12.9854H12.9843H12.9833H12.9822H12.9811H12.9801H12.979H12.9779H12.9769H12.9758H12.9747H12.9737H12.9726H12.9715H12.9704H12.9694H12.9683H12.9672H12.9662H12.9651H12.964H12.963H12.9619H12.9608H12.9588H12.9577H12.9566H12.9556H12.9545H12.9534H12.9524H12.9513H12.9493H12.9482H12.9471H12.946H12.945H12.9439H12.9419H12.9408H12.9397H12.9387H12.9376H12.9355H12.9345H12.9334H12.9314H12.9303H12.9292H12.9272H12.9261H12.925H12.923H12.9219H12.9209H12.9188H12.9178H12.9157H12.9146H12.9126H12.9115H12.9095H12.9074H12.9064H12.9043H12.9023H12.9012H12.8992H12.8971H12.8951H12.8931H12.891H12.889H12.8869H12.8839H12.8819H12.8799H12.8789H12.8768H12.8749H12.8738H12.8708H12.8688H12.8668H12.8649H12.8638H12.8609H12.8588H12.8559H12.854H12.8529H12.85H12.8471H12.8451H12.8432H12.8403H12.8373H12.8354H12.8335C12.7463 14.7079 12.6524 14.6946 12.5742 14.6836L12.5665 14.6824C12.4697 14.6687 12.3942 14.6574 12.3331 14.6373L12.3213 14.6338C10.9267 14.2752 9.6856 13.6109 8.5969 12.6895C8.53439 12.602 8.46109 12.5309 8.39089 12.4676C8.36474 12.4441 8.33985 12.4222 8.31554 12.4009C8.2647 12.3564 8.21647 12.314 8.16533 12.2633L7.95339 12.0531L7.94921 12.049C7.12195 11.2798 6.50079 10.4085 6.03374 9.43347L5.98435 9.28627L5.98192 9.27908L5.9789 9.27208C5.82772 8.92227 5.72885 8.52638 5.72885 8.13536C5.72885 7.60452 5.92261 7.06873 6.26649 6.62657C6.32443 6.56775 6.36828 6.5098 6.40522 6.4609L6.40736 6.45808C6.44197 6.41229 6.47085 6.37447 6.50517 6.33791C6.56204 6.30612 6.61493 6.26675 6.65683 6.23554L6.66238 6.23145C6.71867 6.18955 6.75804 6.16097 6.79363 6.14327L6.81988 6.13025L6.84078 6.10954L6.84681 6.10361C6.89124 6.09729 6.9312 6.08737 6.96211 6.07969C6.96425 6.07911 6.96649 6.07852 6.96863 6.07804C7.02579 6.06384 7.0569 6.05713 7.08384 6.05713H7.08665H7.0885H7.09132H7.09317H7.09599H7.09783H7.09968H7.10153H7.10435H7.1062H7.10902H7.11086H7.11271H7.11456H7.11738H7.11922H7.12204H7.12389H7.12574H7.12758H7.12943H7.13225H7.1341H7.13595H7.13779H7.13964H7.14246H7.14431H7.14615H7.148H7.14985H7.1517H7.15354H7.15539H7.15724H7.15909H7.16093H7.16278H7.16463H7.16647H7.16832H7.17017H7.17202H7.17386H7.17571H7.17756H7.17931H7.18213H7.18397H7.18582H7.18757H7.19039H7.19214H7.19496H7.19671H7.19856H7.2004H7.20225H7.2041H7.20585H7.20857H7.21129H7.21402H7.21674H7.21946H7.22218H7.2249H7.22763H7.22947H7.23122H7.23395H7.23579H7.23754H7.23929H7.24202H7.24386H7.24561H7.24736H7.25008H7.25183H7.25368H7.25543H7.25718H7.25903H7.26078H7.26253H7.26428H7.26603H7.26875H7.2705H7.27225H7.274H7.27575H7.2775H7.27925H7.281H7.28275H7.2845H7.28625H7.288H7.28975H7.2915H7.29325H7.295H7.29675H7.2985H7.30015H7.3019H7.30365H7.3054H7.30706H7.30881H7.31056H7.31221H7.31396H7.31561H7.31736H7.31902H7.32077H7.32242H7.32417H7.32582H7.32757H7.32922H7.33088H7.33263H7.33428H7.33593H7.33768H7.33933H7.34099H7.34264H7.34429H7.34595H7.3476H7.34925H7.3509H7.35256H7.35421H7.35586H7.35752H7.35917H7.36082H7.36247H7.36403H7.36568H7.36734H7.36899H7.37054H7.3722H7.37375H7.3754H7.37696H7.37861H7.38017H7.38182H7.38338H7.38503H7.38659H7.38814H7.3897H7.39135H7.3929H7.39446H7.39602H7.39757H7.39913H7.40068H7.40224H7.40379H7.40535H7.4069H7.40846H7.41002H7.41147H7.41303H7.41458H7.41614H7.4176H7.41915H7.42061H7.42217H7.42363H7.42518H7.42664H7.4281H7.42965H7.43111H7.43257H7.43413H7.43559H7.43704H7.4385H7.43996H7.44142H7.44288H7.44433H7.44579H7.44725H7.44861H7.45007H7.45153H7.45299H7.45435H7.45581H7.45717H7.45863H7.45999H7.46145H7.46281H7.46417H7.46563H7.46699H7.46835H7.46971H7.47107H7.47243H7.47379H7.47515H7.47652H7.47788H7.47924H7.4806H7.48196H7.48322H7.48458H7.48595H7.48721H7.48857H7.48983H7.4912H7.49246H7.49372H7.49509H7.49635H7.49761H7.49888H7.50014H7.5014H7.50267H7.50393H7.5052H7.50646H7.50772H7.63674C7.69682 6.07794 7.73765 6.09632 7.77188 6.11897C7.80678 6.14201 7.84158 6.17419 7.88077 6.23058C7.96117 6.39177 8.15357 6.81177 8.3347 7.22886C8.42706 7.44148 8.51563 7.65148 8.58417 7.82386C8.65543 8.00323 8.69801 8.12486 8.70735 8.17123L8.70958 8.18241L8.71318 8.1932C8.74108 8.27604 8.71765 8.42002 8.63696 8.5469C8.57532 8.61223 8.53001 8.68729 8.4956 8.74426L8.49152 8.75087C8.44952 8.82029 8.42093 8.86589 8.38661 8.89991C8.30154 8.9843 8.20481 9.09406 8.13131 9.1803C8.09407 9.22395 8.06189 9.26255 8.03914 9.29016L8.01221 9.32293L8.00725 9.32905C7.94532 9.39575 7.92568 9.47839 7.91752 9.53497C7.90896 9.59408 7.90906 9.65786 7.90906 9.70637V9.71191V9.75508L7.9285 9.79368C7.94435 9.82518 7.95281 9.84705 7.96272 9.87282C7.96652 9.88264 7.9705 9.89294 7.97517 9.90461C7.98956 9.94029 8.0091 9.98297 8.04565 10.0261L8.08736 10.109L8.09115 10.116C8.36804 10.6104 8.75256 11.0446 9.12832 11.4174C9.1885 11.4771 9.26132 11.5348 9.32461 11.585L9.32879 11.5884C9.39704 11.6426 9.4547 11.6886 9.49922 11.7327C9.94411 12.1741 10.4952 12.5001 11.0889 12.7678L11.0966 12.771L11.3318 12.8643C11.3702 12.896 11.414 12.9226 11.4538 12.9423C11.499 12.9648 11.5702 12.994 11.6403 12.994H11.6933C11.8499 12.994 12.0163 12.919 12.1079 12.7595C12.4699 12.3493 12.6647 12.1303 12.7689 12.014C12.8178 11.9594 12.8466 11.9277 12.8632 11.9095C12.9479 11.8682 13.0145 11.8409 13.108 11.8382C13.1113 11.8397 13.116 11.842 13.1227 11.8453L13.1247 11.8463C13.1367 11.8523 13.1574 11.8626 13.1798 11.8708C13.1933 11.8759 13.2101 11.8812 13.2296 11.8851C13.4938 12.0153 13.8268 12.1676 14.096 12.2884C14.2355 12.351 14.3585 12.4055 14.4466 12.4441L14.5502 12.4896L14.5782 12.5018L14.5856 12.505L14.5869 12.5056L15.1653 12.7663Z" fill="#141414" stroke="#141414" stroke-width="0.373336"/>
</svg>
