<svg width="13" height="13" viewBox="0 0 13 13" fill="none" xmlns="http://www.w3.org/2000/svg">
<path d="M10.0215 1.42187H9.57368V0.96875C9.57368 0.70986 9.36378 0.5 9.10488 0.5C8.84603 0.5 8.63617 0.70986 8.63617 0.96875V1.42187H4.0371V0.96875C4.0371 0.70986 3.82724 0.5 3.56835 0.5C3.30946 0.5 3.0996 0.70986 3.0996 0.96875V1.42187H2.65183C1.37376 1.42187 0.333984 2.46165 0.333984 3.7397V10.1821C0.333984 11.4602 1.37376 12.5 2.65183 12.5H10.0215C11.2996 12.5 12.3393 11.4602 12.3393 10.1821V3.7397C12.3393 2.46165 11.2996 1.42187 10.0215 1.42187ZM2.65183 2.35937H3.0996V3.27343C3.0996 3.53232 3.30946 3.74218 3.56835 3.74218C3.82724 3.74218 4.0371 3.53232 4.0371 3.27343V2.35937H8.63619V3.27343C8.63619 3.53232 8.84605 3.74218 9.10498 3.74218C9.36388 3.74218 9.57368 3.53232 9.57368 3.27343V2.35937H10.0215C10.7826 2.35937 11.4018 2.97859 11.4018 3.7397V4.18749H1.27148V3.7397C1.27148 2.97859 1.89069 2.35937 2.65183 2.35937ZM10.0215 11.5625H2.65183C1.89069 11.5625 1.27148 10.9433 1.27148 10.1821V5.12499H11.4018V10.1821C11.4018 10.9433 10.7826 11.5625 10.0215 11.5625ZM4.49805 6.96875C4.49805 7.22764 4.28819 7.4375 4.0293 7.4375H3.10743C2.84854 7.4375 2.63868 7.22764 2.63868 6.96875C2.63868 6.70986 2.84854 6.5 3.10743 6.5H4.0293C4.28816 6.5 4.49805 6.70986 4.49805 6.96875ZM10.0347 6.96875C10.0347 7.22764 9.82478 7.4375 9.56588 7.4375H8.64402C8.38513 7.4375 8.17527 7.22764 8.17527 6.96875C8.17527 6.70986 8.38513 6.5 8.64402 6.5H9.56588C9.82478 6.5 10.0347 6.70986 10.0347 6.96875ZM7.26367 6.96875C7.26367 7.22764 7.05381 7.4375 6.79492 7.4375H5.87305C5.61416 7.4375 5.4043 7.22764 5.4043 6.96875C5.4043 6.70986 5.61416 6.5 5.87305 6.5H6.79492C7.05379 6.5 7.26367 6.70986 7.26367 6.96875ZM4.49805 9.7344C4.49805 9.9933 4.28819 10.2031 4.0293 10.2031H3.10743C2.84854 10.2031 2.63868 9.9933 2.63868 9.7344C2.63868 9.4755 2.84854 9.2656 3.10743 9.2656H4.0293C4.28816 9.2656 4.49805 9.4755 4.49805 9.7344ZM10.0347 9.7344C10.0347 9.9933 9.82478 10.2031 9.56588 10.2031H8.64402C8.38513 10.2031 8.17527 9.9933 8.17527 9.7344C8.17527 9.4755 8.38513 9.2656 8.64402 9.2656H9.56588C9.82478 9.2656 10.0347 9.4755 10.0347 9.7344ZM7.26367 9.7344C7.26367 9.9933 7.05381 10.2031 6.79492 10.2031H5.87305C5.61416 10.2031 5.4043 9.9933 5.4043 9.7344C5.4043 9.4755 5.61416 9.2656 5.87305 9.2656H6.79492C7.05379 9.2656 7.26367 9.4755 7.26367 9.7344Z" fill="#BE8F45"/>
</svg>
