<svg width="10" height="6" viewBox="0 0 10 6" fill="none" xmlns="http://www.w3.org/2000/svg">
<path d="M0.244802 0.243704C0.321897 0.166451 0.41347 0.105161 0.514282 0.0633431C0.615093 0.0215252 0.723161 0 0.832302 0C0.941442 0 1.04951 0.0215252 1.15032 0.0633431C1.25113 0.105161 1.34271 0.166451 1.4198 0.243704L4.65313 3.47704L7.88647 0.243704C8.04228 0.0878888 8.25361 0.00035286 8.47397 0.00035286C8.69432 0.00035286 8.90565 0.0878888 9.06147 0.243704C9.21728 0.399518 9.30482 0.610848 9.30482 0.831204C9.30482 1.05156 9.21728 1.26289 9.06147 1.4187L5.23647 5.2437C5.15937 5.32096 5.0678 5.38225 4.96699 5.42406C4.86618 5.46588 4.75811 5.48741 4.64897 5.48741C4.53983 5.48741 4.43176 5.46588 4.33095 5.42406C4.23014 5.38225 4.13856 5.32096 4.06147 5.2437L0.236468 1.4187C-0.0801983 1.10204 -0.0801981 0.568704 0.244802 0.243704Z" fill="white"/>
</svg>
