<svg width="18" height="15" viewBox="0 0 18 15" fill="red" xmlns="http://www.w3.org/2000/svg" class="header__svg-icon">
<path fill-rule="evenodd" clip-rule="evenodd" d="M13.6626 14.0065C14.6736 14.4051 15.0527 13.57 15.0527 13.57L17.7277 1.45982C17.7066 0.6436 16.4849 1.13712 16.4849 1.13712L1.50943 6.43289C1.50943 6.43289 0.7933 6.6607 0.856487 7.05932C0.919675 7.45795 1.48837 7.6477 1.48837 7.6477L5.25857 8.78667C5.25857 8.78667 6.3959 12.1463 6.62765 12.7917C6.83822 13.4181 7.02787 13.437 7.02787 13.437C7.23843 13.513 7.428 13.3801 7.428 13.3801L9.87131 11.3871L13.6626 14.0065ZM14.3141 3.60473C14.3141 3.60473 14.8406 3.32001 14.8196 3.60473C14.8196 3.60473 14.9038 3.6427 14.6301 3.90848C14.3773 4.13629 8.41659 8.95757 7.61615 9.60286C7.55297 9.64082 7.51087 9.69783 7.51087 9.77376L7.27922 11.558C7.23703 11.7478 6.96328 11.7668 6.90009 11.596L5.91009 8.67285C5.868 8.55895 5.91009 8.42601 6.03647 8.35017L14.3141 3.60473Z" fill="white"/>
</svg>
